<svg width="30" height="30" viewBox="0 0 30 30" fill="none" xmlns="http://www.w3.org/2000/svg">
<g id="ph:sketch-logo">
<path id="Vector" d="M28.8279 11.5664L22.2654 4.06641C22.1773 3.96683 22.0691 3.88712 21.9478 3.83257C21.8266 3.77802 21.6952 3.74988 21.5622 3.75H8.43724C8.30431 3.74988 8.17287 3.77802 8.05165 3.83257C7.93042 3.88712 7.82219 3.96683 7.73412 4.06641L1.17162 11.5664C1.01915 11.7433 0.937245 11.9702 0.941569 12.2037C0.945893 12.4372 1.03614 12.6609 1.19506 12.832L14.3201 26.8945C14.4076 26.9867 14.5131 27.0601 14.6299 27.1103C14.7468 27.1605 14.8726 27.1863 14.9997 27.1863C15.1269 27.1863 15.2527 27.1605 15.3696 27.1103C15.4864 27.0601 15.5919 26.9867 15.6794 26.8945L28.8044 12.832C28.9633 12.6609 29.0536 12.4372 29.0579 12.2037C29.0622 11.9702 28.9803 11.7433 28.8279 11.5664ZM26.0622 11.25H21.2107L16.8982 5.625H21.1404L26.0622 11.25ZM8.61302 13.125L12.199 21.8672L4.03099 13.125H8.61302ZM19.3591 13.125L14.9997 23.7773L10.6404 13.125H19.3591ZM11.1443 11.25L14.9997 6.22266L18.8552 11.25H11.1443ZM21.3865 13.125H25.9685L17.8005 21.8672L21.3865 13.125ZM8.85912 5.625H13.1013L8.78881 11.25H3.93724L8.85912 5.625Z" fill="#00ED64"/>
</g>
</svg>
