<svg width="31" height="30" viewBox="0 0 31 30" fill="none" xmlns="http://www.w3.org/2000/svg">
<g id="mdi:language-python">
<path id="Vector" d="M24.5913 9.375C25.5395 9.375 26.4488 9.75165 27.1192 10.4221C27.7897 11.0925 28.1663 12.0019 28.1663 12.95V17.675C28.1663 18.1445 28.0739 18.6094 27.8942 19.0431C27.7145 19.4768 27.4512 19.8709 27.1192 20.2029C26.7873 20.5349 26.3932 20.7982 25.9594 20.9779C25.5257 21.1575 25.0608 21.25 24.5913 21.25H15.6663C15.6663 21.7375 16.0663 22.45 16.5538 22.45H21.9163V24.55C21.9163 25.4981 21.5397 26.4075 20.8692 27.0779C20.1988 27.7483 19.2895 28.125 18.3413 28.125H12.9913C12.0432 28.125 11.1339 27.7483 10.4634 27.0779C9.79297 26.4075 9.41632 25.4981 9.41632 24.55V19.8625C9.41632 19.3936 9.50888 18.9293 9.68869 18.4963C9.8685 18.0633 10.132 17.67 10.4642 17.339C10.7963 17.008 11.1905 16.7459 11.6242 16.5676C12.0578 16.3893 12.5224 16.2984 12.9913 16.3H19.5538C20.0227 16.3 20.487 16.2074 20.92 16.0276C21.3531 15.8478 21.7463 15.5843 22.0773 15.2522C22.4083 14.92 22.6704 14.5258 22.8487 14.0921C23.027 13.6585 23.118 13.1939 23.1163 12.725V9.375H24.5913ZM19.2413 24.1125C18.7413 24.1125 18.3413 24.4875 18.3413 25.225C18.3413 25.9625 18.7413 26.1125 19.2413 26.1125C19.3579 26.1125 19.4733 26.0895 19.581 26.0449C19.6886 26.0003 19.7865 25.935 19.8689 25.8526C19.9513 25.7701 20.0167 25.6723 20.0613 25.5646C20.1059 25.457 20.1288 25.3415 20.1288 25.225C20.1288 24.4875 19.7288 24.1125 19.2413 24.1125ZM6.74132 21.875C5.79317 21.875 4.88386 21.4983 4.21341 20.8279C3.54297 20.1575 3.16632 19.2481 3.16632 18.3V13.575C3.16632 13.1055 3.25879 12.6406 3.43845 12.2069C3.61811 11.7732 3.88144 11.3791 4.21341 11.0471C4.88386 10.3766 5.79317 10 6.74132 10H15.6663C15.6663 9.5125 15.2663 8.8 14.7788 8.8H9.41632V6.7C9.41632 5.75185 9.79297 4.84254 10.4634 4.17209C11.1339 3.50165 12.0432 3.125 12.9913 3.125H18.3413C18.8108 3.125 19.2757 3.21747 19.7094 3.39713C20.1432 3.57679 20.5373 3.84012 20.8692 4.17209C21.2012 4.50406 21.4645 4.89817 21.6442 5.33191C21.8239 5.76565 21.9163 6.23052 21.9163 6.7V11.3875C21.9163 11.8564 21.8238 12.3207 21.644 12.7537C21.4641 13.1867 21.2006 13.58 20.8685 13.911C20.5363 14.242 20.1421 14.5041 19.7085 14.6824C19.2748 14.8607 18.8102 14.9516 18.3413 14.95H11.7788C11.3099 14.95 10.8457 15.0426 10.4126 15.2224C9.97958 15.4022 9.5863 15.6657 9.25532 15.9978C8.92435 16.33 8.6622 16.7242 8.4839 17.1579C8.30561 17.5915 8.21468 18.0561 8.21632 18.525V21.875H6.74132ZM12.0913 7.1375C12.5913 7.1375 12.9913 6.7625 12.9913 6.025C12.9913 5.2875 12.5913 5.1375 12.0913 5.1375C11.6038 5.1375 11.2038 5.2875 11.2038 6.025C11.2038 6.7625 11.6038 7.1375 12.0913 7.1375Z" fill="#00ED64"/>
</g>
</svg>
