<svg width="31" height="28" viewBox="0 0 31 28" fill="none" xmlns="http://www.w3.org/2000/svg">
<g id="Frame">
<path id="Vector" d="M15.6667 16.0217C16.3463 16.0217 16.9981 15.7516 17.4786 15.2708C17.9592 14.7901 18.2292 14.138 18.2292 13.4581C18.2292 12.7782 17.9592 12.1262 17.4786 11.6454C16.9981 11.1646 16.3463 10.8945 15.6667 10.8945C14.987 10.8945 14.3353 11.1646 13.8547 11.6454C13.3741 12.1262 13.1042 12.7782 13.1042 13.4581C13.1042 14.138 13.3741 14.7901 13.8547 15.2708C14.3353 15.7516 14.987 16.0217 15.6667 16.0217Z" stroke="#00ED64" stroke-width="1.54492"/>
<path id="Vector_2" d="M15.6667 18.7075C23.2604 18.7075 29.4167 16.3566 29.4167 13.4553C29.4167 10.5541 23.2604 8.20312 15.6667 8.20312C8.07291 8.20312 1.91666 10.5541 1.91666 13.4553C1.91666 16.3566 8.07291 18.7075 15.6667 18.7075Z" stroke="#00ED64" stroke-width="1.54492"/>
<path id="Vector_3" d="M11.1207 16.0832C14.9169 22.6622 20.0307 26.8202 22.5419 25.3696C25.0532 23.919 24.0107 17.41 20.2132 10.831C16.4169 4.25194 11.3044 0.0939427 8.79193 1.54455C6.28068 2.99391 7.32318 9.50415 11.1207 16.0832Z" stroke="#00ED64" stroke-width="1.54492"/>
<path id="Vector_4" d="M11.1203 10.8313C7.32276 17.4104 6.27901 23.9206 8.79151 25.37C11.3028 26.8206 16.4165 22.6626 20.2128 16.0835C24.0103 9.50453 25.054 2.99554 22.5415 1.54493C20.0303 0.0930703 14.9165 4.25232 11.1203 10.8313Z" stroke="#00ED64" stroke-width="1.54492"/>
</g>
</svg>
