<svg width="30" height="30" viewBox="0 0 30 30" fill="none" xmlns="http://www.w3.org/2000/svg">
<g id="mdi:language-swift">
<path id="Vector" d="M21.3625 24.6508C18.4125 26.3508 14.375 26.5258 10.2875 24.7758C7.07867 23.398 4.36328 21.0793 2.5 18.1258C3.3375 18.8133 4.325 19.3758 5.375 19.8758C9.5875 21.8383 13.7875 21.7008 16.75 19.8758C12.5375 16.6383 8.95 12.4258 6.2875 8.98828C5.725 8.42578 5.3125 7.72578 4.8875 7.10078C15.2375 14.6633 14.7875 16.5883 7.9 5.83828C14.0125 12.0133 19.6875 15.5133 19.6875 15.5133C19.8875 15.6258 20 15.7133 20.1375 15.7883C20.2625 15.4758 20.375 15.1508 20.4625 14.8133C21.45 11.2508 20.325 7.16328 17.8625 3.80078C23.55 7.23828 26.925 13.6883 25.5125 19.1008C25.475 19.2383 25.4375 19.3758 25.45 19.5883C28.25 23.1258 27.5 26.8133 27.1375 26.1133C25.625 23.1258 22.7875 24.0508 21.3625 24.6508Z" fill="#00ED64"/>
</g>
</svg>
