<svg width="30" height="30" viewBox="0 0 30 30" fill="none" xmlns="http://www.w3.org/2000/svg">
<g id="Frame 406568973">
<g id="Xd">
<path d="M9.968 15.064L6 20.904H8.4L11.248 16.632C11.712 17.48 12.128 18.184 12.64 18.968L13.952 20.904H16.368L12.528 15.048L16.352 9.208H13.968L11.248 13.496C10.816 12.696 10.416 12.024 9.936 11.304L8.512 9.208H6.08L9.968 15.064Z" fill="#00ED64"/>
<path d="M20.3278 21.112C21.5278 21.112 22.5518 20.584 23.0317 19.672L23.1597 20.904H24.9517V9H23.0158V14.008C22.5198 13.224 21.5437 12.76 20.4397 12.76C18.0557 12.76 16.6158 14.52 16.6158 16.984C16.6158 19.432 18.0398 21.112 20.3278 21.112ZM20.7598 19.32C19.3997 19.32 18.5677 18.328 18.5677 16.92C18.5677 15.512 19.3997 14.504 20.7598 14.504C22.1198 14.504 22.9998 15.496 22.9998 16.92C22.9998 18.344 22.1198 19.32 20.7598 19.32Z" fill="#00ED64"/>
</g>
</g>
</svg>
